<?xml version="1.0" encoding="UTF-8"?>
<svg version="1.1" xmlns="http://www.w3.org/2000/svg" width="500" height="500">
<path d="M0 0 C165 0 330 0 500 0 C500 165 500 330 500 500 C335 500 170 500 0 500 C0 335 0 170 0 0 Z " fill="#000000" transform="translate(0,0)"/>
<path d="M0 0 C20.13 0 40.26 0 61 0 C61 89.43 61 178.86 61 271 C40.54 271 20.08 271 -1 271 C-4.96 264.73 -8.92 258.46 -13 252 C-15.57881123 247.95528656 -18.16015385 243.91260349 -20.75 239.875 C-22.11980765 237.73698941 -23.48959884 235.59896827 -24.859375 233.4609375 C-25.54451172 232.39198242 -26.22964844 231.32302734 -26.93554688 230.22167969 C-30.29272922 224.98263306 -33.64621158 219.74121962 -37 214.5 C-38.33331485 212.41665484 -39.6666482 210.33332152 -41 208.25 C-49 195.75 -57 183.25 -65 170.75 C-65.66016113 169.7185083 -66.32032227 168.6870166 -67.00048828 167.62426758 C-68.33223097 165.5433993 -69.66393677 163.46250742 -70.99560547 161.3815918 C-75.03095495 155.07592647 -79.06772429 148.77117299 -83.10546875 142.46704102 C-85.09514885 139.35912799 -87.08286357 136.24996515 -89.0703125 133.140625 C-91.74420066 128.95808129 -94.42785024 124.78199994 -97.1171875 120.609375 C-98.41153528 118.59379941 -99.70580922 116.5781764 -101 114.5625 C-101.60602051 113.62639893 -102.21204102 112.69029785 -102.83642578 111.72583008 C-103.38540527 110.86884521 -103.93438477 110.01186035 -104.5 109.12890625 C-104.9846875 108.37681885 -105.469375 107.62473145 -105.96875 106.84985352 C-107 105 -107 105 -107 103 C-107.66 103 -108.32 103 -109 103 C-109 158.44 -109 213.88 -109 271 C-129.13 271 -149.26 271 -170 271 C-170.33 238.66 -170.66 206.32 -171 173 C-172.98 178.94 -174.96 184.88 -177 191 C-178.49209604 194.38957332 -179.92390669 197.53290385 -181.6875 200.75 C-182.10757324 201.53165527 -182.52764648 202.31331055 -182.96044922 203.11865234 C-187.18994775 210.74671586 -192.32558833 217.40402974 -198 224 C-198.72316406 224.86238281 -199.44632813 225.72476563 -200.19140625 226.61328125 C-215.49198243 244.42902064 -235.89158683 256.82416517 -257.9375 264.375 C-258.8648999 264.69686279 -259.7922998 265.01872559 -260.74780273 265.3503418 C-298.5081369 277.61490871 -344.85618702 271 -381 271 C-381 181.9 -381 92.8 -381 1 C-272.17718244 1 -272.17718244 1 -253.25 8.6875 C-252.38640869 9.0285376 -251.52281738 9.3695752 -250.63305664 9.72094727 C-217.35494316 23.25890038 -190.25118214 49.40654592 -176.125 82.4375 C-174.19304823 87.23875792 -172.64438996 92.06683013 -171 97 C-170.67 65.32 -170.34 33.64 -170 1 C-154.964375 0.5359375 -154.964375 0.5359375 -139.625 0.0625 C-136.4792041 -0.07406006 -133.3334082 -0.21062012 -130.09228516 -0.35131836 C-111.04297561 -0.83947191 -111.04297561 -0.83947191 -105.76092529 2.35351562 C-102.30125155 5.71648928 -100.43573599 9.63188794 -98.75323486 14.10263062 C-97.69021317 16.780341 -96.14985313 19.0303708 -94.5234375 21.3984375 C-93.4723849 23.05629518 -92.42292594 24.7151642 -91.375 26.375 C-90.1721864 28.27233287 -88.96904849 30.16946016 -87.765625 32.06640625 C-86.84233398 33.52264404 -86.84233398 33.52264404 -85.90039062 35.00830078 C-82.65468747 40.11786482 -79.38978026 45.21511205 -76.125 50.3125 C-75.45774902 51.3545459 -74.79049805 52.3965918 -74.10302734 53.47021484 C-72.7461808 55.5890857 -71.38924699 57.70790066 -70.03222656 59.82666016 C-67.35207931 64.01173392 -64.67316814 68.19759808 -61.99438477 72.38354492 C-60.66684031 74.45798548 -59.33920388 76.53236718 -58.01147461 78.60668945 C-54.61439469 83.9140283 -51.21840035 89.22205706 -47.82421875 94.53125 C-41.60221393 104.26181075 -35.37246176 113.98650887 -29.08520508 123.67504883 C-24.70914259 130.42881836 -20.3919662 137.21988711 -16.08105469 144.01538086 C-13.44379543 148.17071707 -10.80051838 152.32071091 -8.109375 156.44140625 C-7.68414551 157.09407471 -7.25891602 157.74674316 -6.82080078 158.41918945 C-5.70966967 160.12036793 -4.59332867 161.81814043 -3.4765625 163.515625 C-2 166 -2 166 -2 168 C-1.34 168 -0.68 168 0 168 C0 112.56 0 57.12 0 0 Z " fill="#63FED9" transform="translate(410,72)"/>
<path d="M0 0 C26.15699 0 46.05046637 4.29898484 65 23 C80.53229462 38.7533949 87.22802426 58.86645211 87.3125 80.75 C87.01397653 104.03714475 78.47719739 125.37612133 62 142 C44.02015294 158.45866721 23.91417196 161 0 161 C0 107.87 0 54.74 0 0 Z " fill="#000201" transform="translate(90,127)"/>
<path d="M0 0 C0.33 0 0.66 0 1 0 C1 33.33 1 66.66 1 101 C0.67 101 0.34 101 0 101 C-0.01030746 99.8666069 -0.02061493 98.73321381 -0.03123474 97.56547546 C-0.12888661 86.89715042 -0.23161289 76.22888476 -0.33933926 65.56065655 C-0.3945617 60.0756959 -0.44798069 54.59072991 -0.49731445 49.10571289 C-0.54496791 43.81482553 -0.59731119 38.52400365 -0.65294075 33.23319435 C-0.67335983 31.21215249 -0.69207366 29.19109266 -0.70907402 27.17001915 C-0.73312781 24.34464386 -0.76318119 21.51939253 -0.79467773 18.6940918 C-0.8004332 17.85396042 -0.80618866 17.01382904 -0.81211853 16.14823914 C-0.85402202 12.85286585 -0.95082279 10.14753164 -2 7 C-1.40206327 4.64811553 -0.74118205 2.31074405 0 0 Z " fill="#0F2720" transform="translate(239,242)"/>
</svg>
